<?xml version="1.0" standalone="no"?>
<!DOCTYPE svg PUBLIC "-//W3C//DTD SVG 20010904//EN"
 "http://www.w3.org/TR/2001/REC-SVG-20010904/DTD/svg10.dtd">
<svg version="1.0" xmlns="http://www.w3.org/2000/svg"
 width="400.000000pt" height="400.000000pt" viewBox="0 0 400.000000 400.000000"
 preserveAspectRatio="xMidYMid meet">
<metadata>
Created by potrace 1.11, written by Peter Selinger 2001-2013
</metadata>
<g transform="translate(0.000000,400.000000) scale(0.100000,-0.100000)"
fill="#000000" stroke="none">
<path d="M1845 3854 c-357 -38 -615 -132 -920 -338 -121 -81 -360 -320 -441
-441 -293 -434 -394 -872 -319 -1380 39 -263 170 -570 346 -808 l50 -68 58
118 c72 145 216 398 343 599 l96 152 -47 5 c-25 4 -160 9 -299 13 -138 4 -252
10 -252 14 0 25 87 132 133 163 93 64 161 80 327 81 80 1 186 -3 235 -7 l90
-8 64 93 c375 542 860 1135 1100 1345 160 140 220 159 326 103 56 -29 175
-119 175 -131 0 -3 -9 -14 -21 -25 -134 -121 -477 -1233 -573 -1859 -71 -456
-60 -705 34 -790 48 -43 148 -18 238 60 85 73 244 302 331 474 17 33 35 61 39
61 5 0 23 -16 42 -35 33 -34 34 -36 21 -73 -28 -79 -112 -242 -172 -333 -85
-128 -241 -282 -334 -331 -230 -119 -426 -82 -522 99 -62 116 -84 239 -84 467
0 141 28 438 46 497 5 14 -11 19 -102 33 -136 21 -477 65 -479 63 -10 -14
-116 -208 -207 -383 -152 -289 -349 -703 -343 -719 6 -17 169 -130 272 -189
174 -99 410 -182 607 -213 152 -23 442 -23 594 0 269 42 527 149 783 325 125
86 354 315 436 437 174 257 281 516 319 770 75 508 -26 946 -319 1380 -81 121
-320 360 -441 441 -256 173 -513 280 -767 319 -102 15 -385 27 -463 19z"/>
<path d="M2338 3068 c-153 -150 -309 -349 -493 -628 -124 -188 -338 -541 -332
-547 7 -7 479 -104 484 -100 2 3 19 71 38 153 86 369 243 851 379 1167 9 20
14 37 12 37 -2 0 -42 -37 -88 -82z"/>
</g>
</svg>
